<svg width="1405" height="1080" viewBox="0 0 1405 1080" fill="none" xmlns="http://www.w3.org/2000/svg">
<path id="L1" d="M1665.83 319.525C1700.25 171.742 1507.45 -51.0812 1383.59 203.642C1363.28 245.409 1318.09 310.023 1255.37 383.165C1197.91 450.166 1045.49 400.415 941.256 465.567C777.79 567.745 929.641 828.805 839.557 879.552C721.569 946.017 547.664 887.206 429.576 885.331C318.41 883.565 212.072 932.183 133.29 1003.98C-4.92187 1129.95 -58.3188 1327.27 95.8267 1449.09C172.991 1510.07 302.164 1552.13 498.742 1556.84C586.633 1558.94 662.479 1563.12 727.991 1569.48C896.608 1585.86 748.093 1725.92 885.807 1833.3C964.275 1894.49 1149.27 1814.13 1159.63 1934.87C1166.99 2020.72 1172.93 2122.76 1199.92 2242.57C1247.31 2452.97 1398.67 2587.08 1541 2436.75C1608.18 2365.79 1673.36 2231.45 1724.63 2011.83C1757.44 1871.29 1866 1954.61 1978.21 1824.62C2090.42 1694.64 2031.39 1555.57 2148.44 1552.2L2150.78 1552.13C2239.99 1549.57 2335.14 1546.83 2433.06 1480.99C2517.41 1424.28 2569.42 1345.59 2585.27 1267.89C2602.22 1184.74 2577.75 1102.72 2507.14 1050C2436.29 997.097 2318.99 973.684 2150.49 1008.2C2039.39 1030.96 2109.23 843.253 1985.23 778.973C1861.23 714.693 1737.17 855.326 1701.22 763.155C1638.76 603.046 1625.53 492.604 1665.83 319.525Z" stroke="url(#paint0_linear_251_542)" stroke-width="3"/>
<path id="L2" d="M1387.04 281.195C1500.68 49.9357 1676.82 253.625 1645.27 389.105C1606.78 554.792 1622.41 656.497 1683.79 802.816C1717.12 886.765 1830.98 758.777 1944.76 817.295C2058.55 875.814 1995.93 1046.7 2097.5 1026.36C2251.79 995.688 2358.86 1018.13 2423.09 1067.41C2487.22 1115.92 2509.14 1191.28 2493.02 1267.42C2477.91 1338.6 2429.55 1410.43 2351.34 1461.59C2255.16 1520.09 2165.71 1535.38 2082.27 1540.52C1975.19 1544.57 2027.89 1671.15 1924.84 1788.86C1821.8 1906.57 1722.13 1829.59 1691.95 1956.01C1644.94 2154.17 1585.56 2274.98 1524.33 2338.35C1394.68 2474.33 1256.48 2351.11 1212.4 2158.64C1186.9 2048.59 1180.07 1954.89 1171.35 1876.65C1161.02 1766.71 991.651 1839.76 919.037 1784.06C792.373 1686.32 926.37 1558.73 772.031 1543.57C711.503 1537.52 641.78 1533.36 561.278 1531.02C380.287 1525.04 263.496 1484.04 195.2 1426.81C55.4925 1315.48 104.712 1135.53 231.158 1020.64C303.533 955.021 401.037 910.627 502.953 912.249C614.691 914.022 775.134 967.491 885.419 903.416C968.141 856.314 830.539 617.494 979.84 523.245C1075.25 462.683 1214.51 506.669 1267.57 444.797C1325.32 377.451 1367.62 318.701 1387.04 281.195Z" stroke="url(#paint1_linear_251_542)" stroke-width="3"/>
<path id="L3" d="M1390.75 362.09C1493.72 155.008 1653.01 339.171 1624.52 461.96C1588.07 619.766 1606.16 712.48 1666.45 844.676C1697.16 920.209 1800.48 805.304 1903.86 858.004C2007.24 910.704 1952.12 1064.25 2043.94 1046.48C2183.67 1019.87 2280.3 1041.37 2337.82 1086.96C2395.39 1131.18 2414.77 1199.69 2399.58 1268.6C2385.3 1333.06 2340.76 1397.8 2268.9 1443.19C2175.58 1493.55 2092.83 1521.77 2016.03 1529.37C1919.14 1534 1965.5 1647.81 1871.94 1752.84C1778.38 1857.87 1687.75 1787.36 1660.37 1899.28C1617.88 2075.41 1564.52 2182.33 1509.43 2237.89C1392.85 2359.05 1267.98 2246.92 1227.15 2072.86C1203.08 1972.85 1195.3 1887.73 1185.17 1817.3C1174.79 1718.44 1021.47 1783.84 954.811 1733.71C839.378 1645.77 958.468 1531.11 818.716 1517.06C763.293 1511.29 699.834 1507.1 626.886 1504.46C461.85 1497.08 357.647 1457.14 298.31 1403.76C173.233 1303.09 218.017 1141.04 332.336 1037.63C398.097 978.441 486.526 938.474 578.979 940.035C684.137 941.802 830.828 989.928 933.121 928.516C1008.27 885.256 884.993 669.198 1019.74 583.26C1106.07 527.532 1231.92 565.759 1280.42 509.23C1333.02 447.908 1372.28 395.217 1390.75 362.09Z" stroke="url(#paint2_linear_251_542)" stroke-width="3"/>
<path id="L4" d="M1394.19 439.639C1486.94 256.026 1629.56 421.043 1603.93 531.528C1569.3 681.94 1589.8 765.921 1649 884.327C1677.08 951.635 1770.21 849.375 1863.36 896.309C1956.51 943.244 1908.63 1079.97 1990.92 1064.61C2116.43 1041.84 2202.82 1062.37 2253.71 1104.34C2304.81 1144.34 2321.62 1206.19 2307.26 1268.09C2293.71 1326.02 2252.83 1383.91 2187.11 1423.74C2096.38 1466.18 2020.16 1507.49 1949.81 1517.65C1862.89 1522.96 1902.91 1624.28 1818.51 1717.03C1734.12 1809.78 1652.38 1745.62 1627.64 1843.41C1589.39 1998.07 1541.83 2091.46 1492.69 2139.43C1388.79 2246.24 1277.09 2145.01 1239.58 1988.89C1216.99 1898.65 1208.33 1821.85 1196.85 1759.04C1186.49 1670.98 1048.8 1729.07 988.002 1684.43C883.627 1606.14 988.194 1503.95 862.727 1491.12C812.291 1485.66 754.956 1481.49 689.4 1478.62C539.955 1469.97 448.141 1431.1 397.678 1381.47C287.05 1291.29 327.66 1146.62 430.213 1054.28C489.566 1001.28 569.158 965.534 652.356 966.949C751.166 968.614 884.386 1011.39 978.973 952.373C1046.76 912.756 937.744 718.95 1058.32 640.939C1135.82 589.798 1248.5 622.255 1292.6 570.855C1340.24 515.328 1376.61 468.504 1394.19 439.639Z" stroke="url(#paint3_linear_251_542)" stroke-width="3"/>
<path id="L5" d="M1399.37 518.422C1481.94 358.316 1607.58 503.968 1584.75 602.103C1551.85 745.071 1574.66 820.246 1632.62 924.737C1657.98 983.754 1740.88 894.126 1823.66 935.188C1906.44 976.25 1865.73 1096.1 1938.41 1083.1C2049.57 1064.09 2125.6 1083.56 2169.78 1121.84C2214.3 1157.57 2228.47 1212.7 2214.91 1267.56C2202.07 1318.95 2164.84 1369.98 2105.3 1404.27C2017.23 1438.84 1947.57 1493.31 1883.74 1506.08C1806.9 1512.14 1840.44 1600.88 1765.23 1681.36C1690.03 1761.85 1617.35 1704.14 1595.18 1787.75C1561.1 1920.88 1519.31 2000.71 1476.15 2041.11C1384.97 2133.58 1286.65 2043.4 1252.64 1905.34C1231.63 1824.95 1222.16 1756.54 1209.38 1701.39C1199.13 1624.19 1077.19 1675.06 1022.36 1635.99C929.23 1567.48 1019.23 1477.73 908.209 1466.24C862.823 1461.14 811.685 1457.04 753.6 1453.99C619.931 1444.2 540.649 1406.49 499.166 1360.69C403.194 1281.14 439.703 1153.9 530.442 1072.61C583.362 1025.78 654.053 994.209 727.895 995.407C820.244 996.886 939.802 1034.18 1026.62 977.501C1087 941.494 992.539 770.149 1098.86 700.011C1167.49 653.423 1266.84 679.994 1306.54 633.718C1349.2 583.98 1382.67 543.021 1399.37 518.422Z" stroke="url(#paint4_linear_251_542)" stroke-width="3"/>
<path id="L6" d="M1402.86 599.54C1475.02 463.263 1583.73 589.465 1563.83 675.078C1532.83 810.346 1558.01 876.625 1614.77 967.1C1637.46 1017.77 1709.98 940.989 1782.37 976.203C1854.75 1011.42 1821.36 1114.17 1884.36 1103.63C1981.07 1088.52 2046.7 1106.98 2084.16 1141.57C2122.11 1173 2133.69 1221.34 2121 1269.07C2108.92 1313.83 2075.43 1357.89 2022.17 1386.54C1936.88 1413.1 1873.88 1480.55 1816.64 1495.84C1749.93 1502.57 1777.06 1578.63 1711.19 1646.65C1645.32 1714.67 1581.69 1663.43 1562.21 1732.72C1532.46 1844.08 1496.56 1910.2 1459.45 1942.91C1381.16 2020.83 1296.2 1941.72 1265.57 1821.91C1246.08 1751.45 1235.74 1691.52 1221.62 1644.11C1211.41 1577.88 1105.36 1621.32 1056.5 1587.81C974.619 1529.1 1049.9 1452.03 953.392 1441.76C913.087 1436.98 868.182 1432.9 817.612 1429.62C699.814 1418.58 633.087 1381.99 600.564 1340.04C519.237 1271.15 551.481 1161.58 630.253 1091.54C676.649 1051 738.35 1023.73 802.781 1024.79C888.59 1026.17 994.431 1058.05 1073.36 1003.89C1126.24 971.609 1046.23 822.88 1138.15 760.833C1197.8 718.941 1283.77 739.691 1318.98 698.65C1356.58 654.819 1387.08 619.82 1402.86 599.54Z" stroke="url(#paint5_linear_251_542)" stroke-width="3"/>
<path id="L7" d="M1406.27 677.062C1468.21 564.276 1560.21 671.305 1543.17 744.603C1513.97 872.497 1541.56 930.031 1597.24 1006.7C1617.3 1049.12 1679.61 985.002 1741.76 1014.44C1803.9 1043.87 1777.75 1129.78 1831.2 1121.66C1913.67 1110.39 1969.05 1127.87 1999.87 1158.84C2031.33 1186.04 2040.34 1227.72 2028.48 1268.43C2017.12 1306.66 1987.29 1343.86 1940.17 1366.94C1857.46 1385.59 1800.98 1466.18 1750.19 1484.05C1693.47 1491.46 1714.24 1555.03 1657.54 1610.76C1600.84 1666.49 1546.13 1621.6 1529.27 1676.74C1503.77 1766.6 1473.67 1819.18 1442.53 1844.29C1376.92 1907.85 1305.16 1839.65 1277.86 1737.79C1259.86 1677.12 1248.64 1625.52 1233.16 1585.73C1222.98 1530.32 1118.93 1571.65 1075.94 1543.64C1005.13 1494.61 1079.52 1424.81 997.322 1415.77C962.009 1411.31 923.237 1407.25 880.069 1403.74C777.883 1391.44 723.569 1355.91 699.942 1317.72C670.962 1275.7 661.168 1167.15 728.161 1108.2C768.145 1073.84 821 1050.8 876.163 1051.7C955.624 1052.98 1047.98 1079.49 1119.2 1027.71C1164.7 999.065 1098.99 872.618 1176.73 818.495C1227.54 781.187 1300.33 796.149 1331.14 760.238C1363.77 722.203 1391.37 693.075 1406.27 677.062Z" stroke="url(#paint6_linear_251_542)" stroke-width="3"/>
<path id="L8" d="M1411.39 755.796C1463.12 666.541 1538.12 754.182 1523.89 815.118C1496.36 935.577 1526.24 984.27 1580.66 1046.97C1598 1081.1 1650.07 1029.61 1701.83 1053.17C1753.58 1076.72 1734.61 1145.73 1778.43 1139.97C1846.53 1132.45 1891.53 1148.87 1915.62 1176.16C1940.5 1199.08 1946.87 1234.04 1935.81 1267.7C1925.15 1299.39 1898.98 1329.73 1858.06 1347.28C1778.06 1358.09 1728.05 1451.88 1683.79 1472.37C1637.13 1480.55 1651.44 1531.52 1603.94 1574.97C1556.45 1618.43 1510.81 1580 1496.56 1620.95C1475.24 1689.26 1450.94 1728.26 1425.79 1745.78C1372.92 1794.99 1314.57 1737.85 1290.77 1654.09C1274.37 1603.27 1262.34 1560.08 1245.57 1527.98C1235.5 1483.45 1160.88 1512.36 1123.86 1489.93C1064.32 1450.7 1110.47 1398.57 1042.74 1390.86C1012.49 1386.77 979.926 1382.78 944.242 1379.1C857.869 1365.67 816.116 1331.28 801.48 1296.9C749.3 1249.16 773.264 1174.43 828.43 1126.52C861.971 1098.35 905.913 1079.48 951.709 1080.16C1024.68 1081.22 1103.35 1102.24 1166.82 1052.77C1204.91 1027.74 1153.76 923.767 1217.24 877.525C1259.18 844.772 1318.63 853.84 1345.03 823.053C1372.68 790.809 1397.38 767.545 1411.39 755.796Z" stroke="url(#paint7_linear_251_542)" stroke-width="3"/>
<path id="L9" d="M1415.38 833.722C1456.85 767.997 1515.35 836.598 1504.03 885.238C1478.39 998.455 1510.82 1038.47 1564.35 1087.45C1579.13 1113.37 1621.01 1074.59 1662.63 1092.43C1704.25 1110.28 1692.58 1162.44 1726.91 1159.16C1780.86 1155.57 1815.67 1171.09 1833.18 1194.81C1851.63 1213.55 1855.46 1241.87 1845.25 1268.53C1835.34 1293.69 1812.82 1317.15 1778 1329.09C1700.41 1331.86 1656.92 1438.97 1619.06 1462.03C1582.34 1470.86 1590.35 1509.37 1552.01 1540.48C1513.67 1571.6 1476.84 1539.45 1465.24 1566.22C1448.23 1613 1429.74 1638.42 1410.54 1648.3C1370.37 1683.09 1325.06 1636.75 1304.46 1570.87C1289.45 1529.79 1276.46 1494.9 1258.24 1470.39C1248.12 1436.65 1189.08 1458.16 1157.85 1441.19C1109.24 1411.54 1140.83 1371.93 1087.3 1365.36L1085.85 1365.14C1060.98 1361.38 1034.97 1357.46 1007.17 1353.57C936.267 1338.74 906.85 1305.31 901.082 1274.63C863.269 1237.31 883.011 1179.97 926.416 1143.19C953.559 1121.23 988.695 1106.63 1025.29 1107.21C1092.06 1108.24 1157.39 1124 1213.21 1076.91C1243.95 1055.54 1206.93 973.733 1256.26 935.457C1289.37 907.309 1335.73 910.643 1357.73 884.993C1380.42 858.555 1402.23 841.184 1415.38 833.722Z" stroke="url(#paint8_linear_251_542)" stroke-width="3"/>
<path id="L10" d="M1418.67 914.793C1449.72 872.9 1491.22 921.985 1482.81 958.077C1459.06 1063.46 1493.77 1094.54 1546 1129.45C1558.08 1147 1589.55 1121.07 1620.72 1133.04C1651.9 1145.01 1647.53 1180.06 1672.15 1179.21C1711.6 1179.5 1735.98 1193.98 1746.75 1213.96C1758.6 1228.39 1759.84 1249.91 1750.5 1269.42C1741.36 1287.93 1722.59 1304.42 1694.08 1310.73C1619.4 1305.56 1582.59 1425.46 1551.35 1451.02C1524.79 1460.52 1526.38 1486.32 1497.4 1504.98C1468.42 1523.64 1440.69 1498 1431.77 1510.46C1419.09 1535.49 1406.5 1547.22 1393.36 1549.43C1366.09 1569.67 1334.21 1534.46 1317.04 1486.87C1303.59 1455.76 1289.76 1429.38 1270.25 1412.63C1260.2 1389.87 1217.1 1403.98 1191.88 1392.59C1154.59 1372.77 1171.46 1345.84 1132.51 1340.53C1112.31 1337.04 1092.08 1333.08 1071.29 1328.9C1016.34 1312.87 999.504 1280.63 1002.69 1253.84C979.561 1227.2 995.043 1187.55 1026.46 1162.03C1047.06 1146.36 1073.18 1136.05 1100.32 1136.48C1160.46 1137.38 1211.99 1147.69 1259.86 1103.15C1283.09 1085.52 1260.57 1026.39 1295.47 996.217C1319.59 972.776 1352.52 970.283 1370.03 949.88C1387.64 929.359 1406.46 917.945 1418.67 914.793Z" stroke="url(#paint9_linear_251_542)" stroke-width="3"/>
<path id="L11" d="M1424.24 993.953C1444.95 975.728 1469.58 1005.45 1464.05 1029.11C1442.11 1126.88 1479.15 1149.09 1530.16 1170.04C1539.57 1179.28 1560.72 1166.1 1581.54 1172.23C1602.36 1178.37 1605.26 1196.43 1620.25 1198.01C1645.31 1202.14 1659.33 1215.6 1663.41 1231.91C1668.72 1242.07 1667.36 1256.85 1658.87 1269.27C1650.48 1281.2 1635.43 1290.77 1613.15 1291.49C1541.26 1278.42 1510.99 1411.29 1486.29 1439.39C1469.8 1449.57 1465.01 1462.77 1445.31 1469.06C1425.61 1475.35 1406.9 1456.15 1400.65 1454.38C1392.27 1457.77 1385.53 1455.87 1378.42 1450.45C1363.95 1456.23 1345.39 1432.05 1331.62 1402.6C1319.7 1381.38 1305.03 1363.44 1284.2 1354.39C1274.21 1342.54 1246.92 1349.29 1227.65 1343.46C1201.57 1333.4 1203.81 1319.05 1179.3 1315C1164.16 1311.84 1150.15 1307.91 1136.84 1303.51C1097.69 1286.27 1093.37 1255.16 1105.49 1232.18C1096.95 1216.14 1108.21 1194.04 1127.73 1179.68C1141.85 1170.25 1159.03 1164.2 1176.81 1164.47C1230.42 1165.24 1268.29 1170.12 1308.34 1128.04C1324.12 1114.09 1316.02 1077.46 1336.6 1055.3C1351.8 1036.5 1371.44 1028.2 1384.5 1012.99C1397.08 998.323 1412.95 992.82 1424.24 993.953Z" stroke="url(#paint10_linear_251_542)" stroke-width="3"/>
<defs>
<linearGradient id="paint0_linear_251_542" x1="1037.46" y1="-279.769" x2="1450.68" y2="2695.96" gradientUnits="userSpaceOnUse">
<stop offset="0.223958" stop-color="#FFE797"/>
<stop offset="0.317708" stop-color="#86FFF8"/>
<stop offset="0.458333" stop-color="#6D00FF"/>
</linearGradient>
<linearGradient id="paint1_linear_251_542" x1="1065.06" y1="-163.463" x2="1443.17" y2="2580.16" gradientUnits="userSpaceOnUse">
<stop offset="0.223958" stop-color="#FFE797"/>
<stop offset="0.317708" stop-color="#86FFF8"/>
<stop offset="0.458333" stop-color="#6D00FF"/>
</linearGradient>
<linearGradient id="paint2_linear_251_542" x1="1093.19" y1="-42.9119" x2="1432.72" y2="2462.28" gradientUnits="userSpaceOnUse">
<stop offset="0.223958" stop-color="#FFE797"/>
<stop offset="0.317708" stop-color="#86FFF8"/>
<stop offset="0.458333" stop-color="#6D00FF"/>
</linearGradient>
<linearGradient id="paint3_linear_251_542" x1="1120.78" y1="73.3958" x2="1425.21" y2="2346.44" gradientUnits="userSpaceOnUse">
<stop offset="0.223958" stop-color="#FFE797"/>
<stop offset="0.317708" stop-color="#86FFF8"/>
<stop offset="0.458333" stop-color="#6D00FF"/>
</linearGradient>
<linearGradient id="paint4_linear_251_542" x1="1150.74" y1="191.385" x2="1421.77" y2="2230.15" gradientUnits="userSpaceOnUse">
<stop offset="0.223958" stop-color="#FFE797"/>
<stop offset="0.317708" stop-color="#86FFF8"/>
<stop offset="0.458333" stop-color="#6D00FF"/>
</linearGradient>
<linearGradient id="paint5_linear_251_542" x1="1178.87" y1="311.938" x2="1413.91" y2="2114.28" gradientUnits="userSpaceOnUse">
<stop offset="0.223958" stop-color="#FFE797"/>
<stop offset="0.317708" stop-color="#86FFF8"/>
<stop offset="0.458333" stop-color="#6D00FF"/>
</linearGradient>
<linearGradient id="paint6_linear_251_542" x1="1208.45" y1="429.666" x2="1409.83" y2="1998.02" gradientUnits="userSpaceOnUse">
<stop offset="0.223958" stop-color="#FFE797"/>
<stop offset="0.317708" stop-color="#86FFF8"/>
<stop offset="0.458333" stop-color="#6D00FF"/>
</linearGradient>
<linearGradient id="paint7_linear_251_542" x1="1236.42" y1="546.24" x2="1402.95" y2="1881.96" gradientUnits="userSpaceOnUse">
<stop offset="0.223958" stop-color="#FFE797"/>
<stop offset="0.317708" stop-color="#86FFF8"/>
<stop offset="0.458333" stop-color="#6D00FF"/>
</linearGradient>
<linearGradient id="paint8_linear_251_542" x1="1264.03" y1="662.552" x2="1393.71" y2="1767.84" gradientUnits="userSpaceOnUse">
<stop offset="0.223958" stop-color="#FFE797"/>
<stop offset="0.317708" stop-color="#86FFF8"/>
<stop offset="0.458333" stop-color="#6D00FF"/>
</linearGradient>
<linearGradient id="paint9_linear_251_542" x1="1292.15" y1="783.1" x2="1385.83" y2="1651.44" gradientUnits="userSpaceOnUse">
<stop offset="0.223958" stop-color="#FFE797"/>
<stop offset="0.317708" stop-color="#86FFF8"/>
<stop offset="0.458333" stop-color="#6D00FF"/>
</linearGradient>
<linearGradient id="paint10_linear_251_542" x1="1322.11" y1="901.094" x2="1393.65" y2="1548.3" gradientUnits="userSpaceOnUse">
<stop offset="0.223958" stop-color="#FFE797"/>
<stop offset="0.317708" stop-color="#86FFF8"/>
<stop offset="0.458333" stop-color="#6D00FF"/>
</linearGradient>
</defs>
</svg>
