<svg width="21960" height="20615" viewBox="0 0 21960 20615" fill="none" xmlns="http://www.w3.org/2000/svg">
<path d="M21655 23.4648C20234.5 -70.4826 18810 130.884 17471.2 614.871C16132.3 1098.86 14908.3 1854.97 13876.2 2835.54C12844.1 3816.11 12026.3 4999.88 11474.4 6312.21C10922.5 7624.55 10648.5 9037 10669.5 10460.5C10690.6 11884 11006.3 13287.8 11596.8 14583.2C12187.3 15878.6 13039.8 17037.7 14100.4 17987.3C15161.1 18936.9 16407 19656.4 17759.5 20100.6C19112.1 20544.7 20542 20703.8 21959.1 20567.9L21811.4 19028.9C20606.9 19144.5 19391.5 19009.2 18241.8 18631.7C17092.2 18254.1 16033.2 17642.5 15131.6 16835.4C14230 16028.2 13505.5 15043 13003.5 13941.9C12501.6 12840.8 12233.3 11647.6 12215.4 10437.6C12197.4 9227.65 12430.4 8027.07 12899.5 6911.58C13368.6 5796.09 14063.7 4789.89 14941 3956.41C15818.3 3122.92 16858.7 2480.23 17996.7 2068.84C19134.7 1657.45 20447.6 1479.22 21655 1559.07V23.4648Z" fill="url(#paint0_linear_220_139)"/>
<path d="M201.838 15.0566C1605.68 -55.6795 3009.15 161.489 4325.96 653.209C5642.77 1144.93 6845.08 1900.81 7858.96 2874.36C8872.84 3847.92 9676.86 5018.58 10221.6 6314.36C10766.3 7610.14 11040.2 9003.64 11026.5 10409.2C11012.8 11814.8 10711.7 13202.6 10141.7 14487.5C9571.79 15772.4 8745.04 16927.1 7712.33 17880.7C6679.62 18834.3 5462.77 19566.5 4136.6 20032.4C2810.44 20498.3 1402.99 20688 0.800781 20589.8L108.756 19047.6C1300.62 19131.1 2496.95 18969.8 3624.19 18573.8C4751.43 18177.8 5785.75 17555.4 6663.56 16744.9C7541.36 15934.3 8244.1 14952.8 8728.55 13860.7C9213 12768.5 9468.93 11588.8 9480.61 10394.1C9492.28 9199.37 9259.45 8014.89 8796.43 6913.48C8333.41 5812.07 7649.99 4817.01 6788.19 3989.48C5926.39 3161.96 4904.43 2519.46 3785.14 2101.5C2665.85 1683.54 1472.9 1498.95 279.637 1559.07L201.838 15.0566Z" fill="url(#paint1_linear_220_139)"/>
<defs>
<linearGradient id="paint0_linear_220_139" x1="0.800781" y1="0.998047" x2="20573.7" y2="21915.5" gradientUnits="userSpaceOnUse">
<stop stop-color="#FFE797"/>
<stop offset="0.493761" stop-color="#77ADAA"/>
<stop offset="1" stop-color="#4C1D8A"/>
</linearGradient>
<linearGradient id="paint1_linear_220_139" x1="0.800781" y1="0.998047" x2="20573.7" y2="21915.5" gradientUnits="userSpaceOnUse">
<stop stop-color="#FFE797"/>
<stop offset="0.493761" stop-color="#77ADAA"/>
<stop offset="1" stop-color="#4C1D8A"/>
</linearGradient>
</defs>
</svg>
