<svg width="1036" height="1036" viewBox="0 0 1036 1036" fill="none" xmlns="http://www.w3.org/2000/svg">
<path d="M524.687 162.097C524.987 162.097 526.187 162.097 526.187 163.927V178.417L514.847 161.707H511.427V162.097C511.727 162.097 512.927 162.097 512.927 163.897V180.727C512.927 182.557 511.727 182.557 511.427 182.557V182.947H515.387V182.557C515.057 182.557 513.887 182.557 513.887 180.727V164.137L526.787 182.947H527.147V163.927C527.147 162.097 528.347 162.097 528.647 162.097V161.707H524.687V162.097Z" fill="white" fill-opacity="0.7"/>
<path d="M534.662 183.102L534.684 182.712C534.384 182.696 533.186 182.628 533.287 180.831L533.918 169.599L540.388 169.962C542.335 170.071 542.136 170.932 542.132 171.532L542.522 171.554L542.737 167.72L542.348 167.698C542.282 168.326 542.383 169.203 540.436 169.094L533.967 168.73L534.308 162.65L541.676 163.064C543.563 163.17 543.765 164.924 543.951 165.896L544.341 165.917L543.91 162.348L530.821 161.613L530.799 162.002C531.098 162.019 532.296 162.086 532.194 163.913L531.252 180.687C531.149 182.514 529.951 182.447 529.652 182.43L529.63 182.819L534.662 183.102Z" fill="white" fill-opacity="0.7"/>
<path d="M549.32 166.312C549.666 165.384 550.156 163.719 552.034 163.93L555.015 164.266C556.029 164.381 556.343 164.808 556.202 166.06L554.354 182.457C554.149 184.275 552.957 184.141 552.659 184.107L552.615 184.495L557.624 185.059L557.667 184.672C557.369 184.638 556.177 184.504 556.382 182.685L558.229 166.289C558.37 165.037 558.771 164.69 559.785 164.804L562.766 165.14C564.674 165.355 564.781 167.087 564.912 168.068L565.299 168.112L565.07 164.524L549.955 162.821L548.903 166.265L549.32 166.312Z" fill="white" fill-opacity="0.7"/>
<path d="M588.459 172.067C588.906 171.185 589.579 169.585 591.422 170.005L594.347 170.673C595.341 170.9 595.605 171.36 595.325 172.588L591.653 188.675C591.246 190.459 590.076 190.192 589.784 190.125L589.697 190.505L594.611 191.627L594.697 191.247C594.405 191.18 593.235 190.913 593.642 189.129L597.314 173.042C597.594 171.814 598.032 171.514 599.026 171.741L601.951 172.408C603.823 172.836 603.735 174.569 603.755 175.559L604.136 175.646L604.309 172.054L589.481 168.67L588.049 171.974L588.459 172.067Z" fill="white" fill-opacity="0.7"/>
<path d="M612.802 196.465L612.91 196.09C612.621 196.007 611.468 195.675 611.975 193.916L616.626 177.773C617.132 176.015 618.285 176.347 618.574 176.43L618.682 176.055L613.839 174.66L613.731 175.035C614.019 175.118 615.172 175.45 614.665 177.208L610.015 193.352C609.508 195.11 608.355 194.778 608.067 194.695L607.959 195.07L612.802 196.465Z" fill="white" fill-opacity="0.7"/>
<path d="M623.617 188.59C621.626 194.282 623.409 200.086 629.1 202.078C631.932 203.069 634.275 203.094 636.444 202.073L638.604 197.171L638.236 197.043C636.38 201.256 633.144 202.603 629.378 201.285C624.592 199.61 623.849 194.106 625.543 189.264C627.217 184.478 631.269 180.62 636.026 182.285C638.773 183.246 641.17 186.023 640.656 189.308L641.025 189.437L641.599 185.887C640.557 183.87 638.721 182.306 636.314 181.463C630.622 179.472 625.599 182.927 623.617 188.59Z" fill="white" fill-opacity="0.7"/>
<path d="M642.994 206.997L643.143 206.637C642.866 206.522 641.757 206.063 642.457 204.372L645.511 197L648.921 195.587L650.389 207.723C650.54 209.084 649.744 209.436 648.852 209.002L648.703 209.362L654.136 211.613L654.285 211.252C654.008 211.137 652.788 210.632 652.53 208.512L650.909 194.787L657.22 192.173C659.521 191.243 660.773 191.826 661.05 191.941L661.199 191.581L656.571 189.664L656.421 190.024C657.098 190.272 657.568 191.018 656.318 191.605L645.982 195.863L648.886 188.851C649.575 187.188 650.656 187.636 650.961 187.762L651.11 187.402L646.454 185.473L646.305 185.834C646.554 185.937 647.663 186.396 646.974 188.059L640.545 203.58C639.845 205.271 638.736 204.812 638.459 204.697L638.31 205.057L642.994 206.997Z" fill="white" fill-opacity="0.7"/>
<path d="M668.618 218.561L672.427 212.105L672.076 211.935C670.846 214.074 668.55 217.596 665.928 216.334L660.09 213.522L665.57 202.143L671.408 204.954C673.165 205.801 672.64 206.546 672.406 207.1L672.758 207.269L674.424 203.809L674.072 203.64C673.772 204.195 673.53 205.044 671.773 204.198L665.935 201.386L668.577 195.899L675.226 199.101C676.929 199.921 676.498 201.645 676.244 202.588L676.595 202.757L677.564 199.295L665.752 193.606L665.583 193.958C665.853 194.088 666.934 194.609 666.14 196.257L658.851 211.394C658.057 213.042 656.976 212.522 656.705 212.392L656.536 212.743L668.618 218.561Z" fill="white" fill-opacity="0.7"/>
<path d="M681.358 205.178C682.032 204.454 683.122 203.102 684.776 204.017L687.402 205.468C688.294 205.961 688.421 206.477 687.811 207.58L679.83 222.021C678.945 223.622 677.894 223.042 677.632 222.897L677.443 223.238L681.854 225.676L682.043 225.335C681.78 225.19 680.73 224.609 681.615 223.008L689.597 208.566C690.206 207.464 690.71 207.296 691.603 207.79L694.228 209.241C695.909 210.17 695.344 211.811 695.09 212.768L695.431 212.956L696.592 209.553L683.28 202.196L680.99 204.975L681.358 205.178Z" fill="white" fill-opacity="0.7"/>
<path d="M697.995 235.361L698.203 235.031C697.949 234.871 696.932 234.233 697.906 232.683L706.844 218.458C707.818 216.909 708.834 217.547 709.088 217.707L709.295 217.376L705.028 214.695L704.82 215.025C705.074 215.185 706.091 215.823 705.117 217.373L696.179 231.598C695.205 233.147 694.189 232.509 693.935 232.349L693.728 232.679L697.995 235.361Z" fill="white" fill-opacity="0.7"/>
<path d="M729.435 231.63C729.68 231.804 730.658 232.498 729.599 233.991L721.214 245.808L721.636 225.618L718.846 223.639L718.621 223.957C718.865 224.131 719.844 224.825 718.802 226.293L709.063 240.019C708.004 241.512 707.026 240.817 706.781 240.644L706.555 240.962L709.785 243.253L710.011 242.935C709.742 242.744 708.787 242.067 709.846 240.575L719.447 227.045L719.082 249.85L719.376 250.058L730.382 234.546C731.441 233.054 732.42 233.748 732.665 233.922L732.89 233.604L729.661 231.312L729.435 231.63Z" fill="white" fill-opacity="0.7"/>
<path d="M727.89 243.284C724.13 247.999 723.966 254.123 728.68 257.882C730.862 259.622 733.416 260.316 736.011 259.853L739.06 256.03C740.201 254.599 741.139 255.347 741.374 255.534L741.617 255.229L733.713 248.926L733.469 249.231L737.415 252.799C738.175 253.482 738.176 253.866 737.465 254.758L736.193 256.353C734.005 259.097 731.878 259.358 729.181 257.207C725.24 254.064 726.38 248.642 729.578 244.631C732.739 240.667 737.81 238.303 741.75 241.445C744.025 243.259 745.333 246.72 743.806 249.646L744.111 249.889L745.802 246.71C745.484 244.461 744.268 242.378 742.274 240.788C737.56 237.029 731.607 238.575 727.866 243.266L727.89 243.284Z" fill="white" fill-opacity="0.7"/>
<path d="M774.351 271.148C774.563 271.36 775.411 272.209 774.117 273.503L763.871 283.749L767.668 263.914L765.25 261.496L764.974 261.772C765.186 261.984 766.035 262.833 764.762 264.105L752.862 276.006C751.568 277.3 750.719 276.451 750.507 276.239L750.231 276.515L753.031 279.315L753.307 279.039C753.074 278.806 752.246 277.979 753.54 276.685L765.271 264.954L761.092 287.376L761.347 287.631L774.796 274.182C776.09 272.888 776.939 273.736 777.151 273.948L777.426 273.672L774.626 270.872L774.351 271.148Z" fill="white" fill-opacity="0.7"/>
<path d="M766.233 293.121L766.524 292.861C766.324 292.638 765.524 291.743 766.866 290.543L775.255 283.047L779.573 287.879C780.872 289.333 780.123 289.801 779.696 290.223L779.956 290.514L782.819 287.955L782.559 287.664C782.07 288.061 781.521 288.753 780.221 287.299L775.903 282.467L780.444 278.409L785.362 283.912C786.621 285.321 785.524 286.704 784.968 287.523L785.228 287.814L787.448 284.985L778.712 275.21L778.421 275.47C778.621 275.693 779.421 276.588 778.056 277.808L765.529 289.002C764.165 290.222 763.365 289.327 763.165 289.103L762.874 289.363L766.233 293.121Z" fill="white" fill-opacity="0.7"/>
<path d="M788.471 291.614C789.371 291.203 790.895 290.372 792.073 291.849L793.944 294.195C794.58 294.992 794.499 295.517 793.514 296.302L780.614 306.59C779.183 307.731 778.435 306.793 778.248 306.558L777.943 306.801L781.085 310.742L781.39 310.499C781.203 310.264 780.455 309.326 781.886 308.185L794.786 297.897C795.771 297.112 796.301 297.15 796.937 297.947L798.807 300.293C800.004 301.794 798.854 303.095 798.253 303.881L798.496 304.186L800.871 301.486L791.388 289.595L788.209 291.286L788.471 291.614Z" fill="white" fill-opacity="0.7"/>
<path d="M812.075 323.358C813.016 323.051 814.623 322.395 815.629 323.995L817.225 326.536C817.768 327.399 817.629 327.912 816.562 328.582L802.591 337.361C801.042 338.334 800.403 337.318 800.244 337.064L799.913 337.272L802.595 341.539L802.925 341.332C802.765 341.078 802.127 340.061 803.676 339.088L817.647 330.309C818.714 329.639 819.236 329.736 819.779 330.6L821.375 333.14C822.396 334.766 821.108 335.93 820.423 336.644L820.63 336.974L823.293 334.557L815.2 321.678L811.852 323.003L812.075 323.358Z" fill="white" fill-opacity="0.7"/>
<path d="M812.037 357.823L812.378 357.635C812.233 357.372 811.653 356.322 813.255 355.437L827.958 347.31C829.56 346.425 830.14 347.475 830.286 347.738L830.627 347.549L828.189 343.138L827.848 343.327C827.993 343.589 828.573 344.639 826.972 345.525L812.268 353.651C810.666 354.536 810.086 353.486 809.941 353.223L809.599 353.412L812.037 357.823Z" fill="white" fill-opacity="0.7"/>
<path d="M825.252 359.903C819.82 362.519 816.976 367.884 819.592 373.317C820.894 376.02 822.533 377.695 824.788 378.507L829.782 376.568L829.612 376.217C825.321 377.884 822.08 376.548 820.349 372.953C818.149 368.385 821.516 363.967 826.137 361.741C830.705 359.541 836.299 359.678 838.485 364.219C839.748 366.84 839.479 370.5 836.793 372.459L836.962 372.81L839.878 370.707C840.568 368.543 840.376 366.139 839.269 363.841C836.653 358.408 830.658 357.299 825.252 359.903Z" fill="white" fill-opacity="0.7"/>
<path d="M825.938 386.62L826.299 386.471C826.184 386.194 825.725 385.085 827.415 384.385L834.788 381.331L838.198 382.743L830.655 392.362C829.799 393.431 828.987 393.118 828.664 392.18L828.303 392.33L830.553 397.762L830.914 397.613C830.799 397.336 830.294 396.116 831.61 394.434L840.169 383.583L846.48 386.197C848.765 387.166 849.238 388.464 849.352 388.741L849.713 388.592L847.795 383.963L847.435 384.113C847.738 384.766 847.543 385.627 846.244 385.158L835.924 380.86L842.936 377.956C844.599 377.267 845.047 378.348 845.173 378.653L845.534 378.503L843.605 373.847L843.245 373.996C843.348 374.246 843.807 375.354 842.144 376.043L826.623 382.472C824.932 383.173 824.473 382.064 824.358 381.787L823.998 381.936L825.938 386.62Z" fill="white" fill-opacity="0.7"/>
<path d="M835.88 412.916L843.139 411.043L843.01 410.675C840.628 411.318 836.514 412.185 835.553 409.439L833.413 403.322L845.334 399.151L847.474 405.267C848.118 407.108 847.219 407.263 846.663 407.49L846.792 407.858L850.416 406.59L850.287 406.222C849.683 406.401 848.911 406.83 848.267 404.99L846.127 398.873L851.875 396.862L854.313 403.828C854.937 405.612 853.413 406.526 852.567 407.013L852.696 407.381L855.829 405.618L851.499 393.243L851.131 393.372C851.23 393.655 851.626 394.788 849.899 395.392L834.042 400.941C832.314 401.545 831.918 400.413 831.819 400.13L831.451 400.258L835.88 412.916Z" fill="white" fill-opacity="0.7"/>
<path d="M854.352 412.461C855.341 412.426 857.067 412.241 857.591 414.057L858.421 416.94C858.704 417.92 858.428 418.374 857.218 418.722L841.363 423.29C839.604 423.797 839.272 422.644 839.189 422.355L838.814 422.463L840.209 427.306L840.584 427.198C840.501 426.91 840.169 425.757 841.927 425.25L857.782 420.683C858.993 420.334 859.468 420.572 859.75 421.552L860.58 424.435C861.112 426.28 859.552 427.041 858.696 427.538L858.804 427.912L862.031 426.327L857.82 411.712L854.236 412.057L854.352 412.461Z" fill="white" fill-opacity="0.7"/>
<path d="M844.774 445.568L845.155 445.481C845.088 445.189 844.821 444.019 846.605 443.612L862.984 439.873C864.768 439.466 865.035 440.636 865.102 440.929L865.482 440.842L864.36 435.928L863.98 436.015C864.047 436.307 864.314 437.477 862.53 437.884L846.151 441.623C844.367 442.03 844.1 440.86 844.033 440.568L843.653 440.654L844.774 445.568Z" fill="white" fill-opacity="0.7"/>
<path d="M869.644 465.161C869.694 465.457 869.895 466.64 868.091 466.947L853.805 469.374L868.38 455.395L867.807 452.023L867.422 452.089C867.473 452.384 867.674 453.567 865.899 453.869L849.307 456.688C847.503 456.995 847.302 455.812 847.251 455.516L846.867 455.581L847.53 459.485L847.915 459.42C847.86 459.095 847.664 457.941 849.468 457.635L865.823 454.856L849.44 470.724L849.5 471.079L868.251 467.893C870.056 467.587 870.257 468.77 870.307 469.065L870.691 469L870.028 465.096L869.644 465.161Z" fill="white" fill-opacity="0.7"/>
<path d="M860.31 472.309C854.317 472.984 849.871 477.199 850.547 483.191C850.859 485.963 852.174 488.26 854.337 489.768L859.196 489.22C861.014 489.015 861.149 490.208 861.182 490.506L861.57 490.462L860.438 480.416L860.05 480.459L860.317 485.773C860.372 486.793 860.1 487.065 858.968 487.193L856.94 487.421C853.452 487.814 851.764 486.495 851.378 483.067C850.814 478.058 855.454 475.03 860.551 474.456C865.59 473.888 870.847 475.801 871.411 480.81C871.737 483.701 870.215 487.073 867.066 488.062L867.109 488.449L870.553 487.397C871.919 485.583 872.531 483.25 872.246 480.716C871.571 474.723 866.268 471.608 860.306 472.279L860.31 472.309Z" fill="white" fill-opacity="0.7"/>
<path d="M873.786 524.687C873.786 524.987 873.786 526.187 871.956 526.187H857.466L874.176 514.847V511.427H873.786C873.786 511.727 873.786 512.927 871.986 512.927H855.156C853.326 512.927 853.326 511.727 853.326 511.427H852.936V515.387H853.326C853.326 515.057 853.326 513.887 855.156 513.887H871.746L852.936 526.787V527.147H871.956C873.786 527.147 873.786 528.347 873.786 528.647H874.176V524.687H873.786Z" fill="white" fill-opacity="0.7"/>
<path d="M852.182 534.662L852.572 534.683C852.589 534.384 852.656 533.186 854.453 533.287L865.685 533.918L865.322 540.387C865.213 542.334 864.352 542.136 863.752 542.132L863.73 542.521L867.564 542.737L867.586 542.347C866.958 542.282 866.081 542.383 866.191 540.436L866.554 533.966L872.634 534.308L872.221 541.676C872.115 543.563 870.361 543.765 869.389 543.951L869.367 544.34L872.937 543.91L873.672 530.82L873.282 530.799C873.265 531.098 873.198 532.296 871.371 532.194L854.597 531.252C852.77 531.149 852.838 529.951 852.854 529.651L852.465 529.63L852.182 534.662Z" fill="white" fill-opacity="0.7"/>
<path d="M868.972 549.321C869.899 549.667 871.565 550.156 871.353 552.035L871.017 555.016C870.903 556.029 870.475 556.343 869.223 556.202L852.827 554.355C851.008 554.15 851.143 552.957 851.176 552.659L850.789 552.616L850.225 557.624L850.612 557.668C850.646 557.37 850.78 556.177 852.599 556.382L868.995 558.229C870.247 558.37 870.594 558.772 870.48 559.785L870.144 562.767C869.929 564.675 868.196 564.781 867.215 564.912L867.172 565.3L870.76 565.07L872.463 549.956L869.019 548.903L868.972 549.321Z" fill="white" fill-opacity="0.7"/>
<path d="M863.217 588.458C864.099 588.906 865.7 589.579 865.279 591.421L864.612 594.346C864.385 595.34 863.924 595.605 862.696 595.324L846.609 591.653C844.825 591.246 845.092 590.076 845.159 589.783L844.779 589.696L843.657 594.61L844.038 594.697C844.104 594.404 844.371 593.234 846.156 593.642L862.242 597.313C863.47 597.594 863.77 598.031 863.543 599.026L862.876 601.951C862.449 603.822 860.715 603.734 859.725 603.755L859.639 604.135L863.23 604.308L866.615 589.48L863.31 588.049L863.217 588.458Z" fill="white" fill-opacity="0.7"/>
<path d="M838.82 612.801L839.194 612.909C839.278 612.621 839.61 611.468 841.368 611.974L857.512 616.625C859.27 617.132 858.938 618.285 858.855 618.573L859.23 618.681L860.625 613.838L860.25 613.73C860.167 614.018 859.835 615.172 858.076 614.665L841.933 610.014C840.174 609.508 840.507 608.354 840.59 608.066L840.215 607.958L838.82 612.801Z" fill="white" fill-opacity="0.7"/>
<path d="M846.695 623.617C841.003 621.626 835.198 623.409 833.207 629.1C832.216 631.932 832.191 634.275 833.212 636.444L838.113 638.604L838.242 638.236C834.029 636.38 832.682 633.144 834 629.378C835.674 624.592 841.179 623.849 846.021 625.543C850.806 627.217 854.665 631.269 853 636.026C852.039 638.773 849.261 641.17 845.977 640.656L845.848 641.025L849.397 641.599C851.415 640.557 852.979 638.721 853.821 636.314C855.813 630.622 852.358 625.599 846.695 623.617Z" fill="white" fill-opacity="0.7"/>
<path d="M828.286 642.994L828.647 643.143C828.762 642.866 829.221 641.757 830.912 642.457L838.284 645.511L839.697 648.921L827.561 650.389C826.2 650.54 825.848 649.744 826.282 648.852L825.922 648.703L823.671 654.136L824.032 654.285C824.146 654.008 824.652 652.788 826.772 652.53L840.497 650.909L843.111 657.22C844.041 659.521 843.458 660.773 843.343 661.05L843.703 661.199L845.62 656.571L845.26 656.421C845.012 657.098 844.265 657.568 843.679 656.318L839.42 645.982L846.433 648.886C848.096 649.575 847.648 650.656 847.522 650.961L847.882 651.11L849.811 646.454L849.45 646.305C849.347 646.554 848.888 647.663 847.225 646.974L831.704 640.545C830.013 639.845 830.472 638.736 830.587 638.459L830.227 638.31L828.286 642.994Z" fill="white" fill-opacity="0.7"/>
<path d="M816.722 668.618L823.179 672.426L823.348 672.075C821.21 670.846 817.687 668.55 818.95 665.928L821.762 660.09L833.141 665.57L830.329 671.408C829.483 673.165 828.737 672.639 828.184 672.406L828.015 672.757L831.474 674.423L831.643 674.072C831.089 673.772 830.24 673.529 831.086 671.772L833.898 665.934L839.384 668.576L836.182 675.226C835.362 676.928 833.638 676.498 832.695 676.243L832.526 676.595L835.989 677.563L841.677 665.751L841.326 665.582C841.196 665.852 840.675 666.934 839.026 666.14L823.89 658.85C822.241 658.056 822.762 656.975 822.892 656.705L822.541 656.536L816.722 668.618Z" fill="white" fill-opacity="0.7"/>
<path d="M830.106 681.358C830.83 682.032 832.182 683.122 831.268 684.776L829.817 687.402C829.323 688.294 828.808 688.421 827.705 687.811L813.264 679.83C811.662 678.945 812.243 677.894 812.388 677.632L812.046 677.443L809.608 681.854L809.95 682.043C810.095 681.78 810.675 680.73 812.277 681.615L826.718 689.597C827.821 690.206 827.988 690.71 827.495 691.603L826.044 694.228C825.115 695.909 823.473 695.344 822.517 695.09L822.328 695.431L825.731 696.592L833.088 683.28L830.309 680.99L830.106 681.358Z" fill="white" fill-opacity="0.7"/>
<path d="M799.924 697.995L800.254 698.203C800.413 697.949 801.052 696.933 802.601 697.906L816.826 706.844C818.376 707.818 817.737 708.834 817.578 709.088L817.908 709.296L820.589 705.028L820.259 704.821C820.1 705.075 819.461 706.091 817.912 705.117L803.687 696.179C802.137 695.205 802.776 694.189 802.935 693.935L802.605 693.728L799.924 697.995Z" fill="white" fill-opacity="0.7"/>
<path d="M803.655 729.435C803.481 729.679 802.786 730.658 801.294 729.599L789.477 721.214L809.667 721.635L811.646 718.846L811.328 718.62C811.154 718.865 810.46 719.844 808.992 718.802L795.266 709.063C793.773 708.004 794.468 707.026 794.641 706.781L794.323 706.555L792.032 709.785L792.35 710.01C792.541 709.741 793.218 708.787 794.71 709.846L808.24 719.446L785.435 719.082L785.227 719.376L800.738 730.382C802.231 731.441 801.537 732.42 801.363 732.664L801.681 732.89L803.973 729.66L803.655 729.435Z" fill="white" fill-opacity="0.7"/>
<path d="M792.001 727.889C787.286 724.129 781.162 723.965 777.403 728.68C775.663 730.861 774.969 733.415 775.432 736.01L779.255 739.059C780.686 740.2 779.938 741.138 779.751 741.373L780.056 741.616L786.359 733.712L786.054 733.469L782.486 737.414C781.803 738.175 781.419 738.175 780.527 737.464L778.932 736.192C776.188 734.004 775.927 731.877 778.078 729.18C781.221 725.24 786.643 726.379 790.654 729.578C794.618 732.739 796.982 737.809 793.84 741.75C792.026 744.025 788.565 745.332 785.639 743.805L785.396 744.11L788.575 745.801C790.824 745.484 792.907 744.267 794.497 742.273C798.256 737.559 796.71 731.606 792.019 727.865L792.001 727.889Z" fill="white" fill-opacity="0.7"/>
<path d="M764.137 774.351C763.925 774.563 763.076 775.412 761.782 774.118L751.536 763.872L771.371 767.669L773.789 765.251L773.513 764.975C773.301 765.187 772.453 766.035 771.18 764.763L759.279 752.862C757.985 751.568 758.834 750.72 759.046 750.507L758.77 750.232L755.97 753.032L756.246 753.308C756.479 753.074 757.306 752.247 758.6 753.541L770.331 765.272L747.909 761.093L747.654 761.347L761.104 774.797C762.398 776.091 761.549 776.939 761.337 777.151L761.613 777.427L764.413 774.627L764.137 774.351Z" fill="white" fill-opacity="0.7"/>
<path d="M742.163 766.232L742.423 766.523C742.647 766.323 743.541 765.523 744.741 766.866L752.237 775.254L747.405 779.572C745.951 780.871 745.484 780.123 745.061 779.695L744.771 779.955L747.329 782.818L747.62 782.559C747.223 782.069 746.531 781.52 747.985 780.221L752.817 775.903L756.875 780.444L751.372 785.361C749.963 786.621 748.58 785.523 747.761 784.967L747.47 785.227L750.299 787.447L760.074 778.711L759.814 778.42C759.591 778.62 758.696 779.42 757.477 778.055L746.282 765.529C745.063 764.164 745.957 763.364 746.181 763.165L745.921 762.874L742.163 766.232Z" fill="white" fill-opacity="0.7"/>
<path d="M743.671 788.47C744.082 789.37 744.913 790.894 743.435 792.073L741.09 793.943C740.293 794.579 739.768 794.499 738.982 793.514L728.695 780.613C727.554 779.183 728.492 778.435 728.726 778.248L728.483 777.943L724.543 781.085L724.786 781.39C725.021 781.203 725.959 780.455 727.1 781.885L737.387 794.786C738.173 795.771 738.135 796.3 737.337 796.936L734.992 798.807C733.491 800.004 732.19 798.854 731.404 798.253L731.099 798.496L733.798 800.871L745.69 791.388L743.999 788.208L743.671 788.47Z" fill="white" fill-opacity="0.7"/>
<path d="M711.926 812.075C712.234 813.015 712.89 814.623 711.289 815.628L708.749 817.224C707.886 817.767 707.373 817.628 706.703 816.562L697.924 802.591C696.951 801.041 697.967 800.403 698.221 800.243L698.013 799.913L693.746 802.594L693.953 802.924C694.207 802.765 695.223 802.126 696.197 803.676L704.976 817.647C705.646 818.714 705.549 819.236 704.685 819.778L702.145 821.374C700.519 822.396 699.355 821.107 698.641 820.422L698.311 820.63L700.728 823.292L713.607 815.2L712.282 811.851L711.926 812.075Z" fill="white" fill-opacity="0.7"/>
<path d="M677.461 812.036L677.65 812.378C677.912 812.233 678.963 811.652 679.848 813.254L687.974 827.958C688.86 829.559 687.809 830.14 687.547 830.285L687.735 830.626L692.146 828.188L691.958 827.847C691.695 827.992 690.645 828.572 689.76 826.971L681.633 812.267C680.748 810.665 681.798 810.085 682.061 809.94L681.872 809.598L677.461 812.036Z" fill="white" fill-opacity="0.7"/>
<path d="M675.381 825.253C672.765 819.82 667.4 816.976 661.967 819.593C659.264 820.894 657.589 822.533 656.777 824.789L658.716 829.782L659.067 829.613C657.4 825.321 658.736 822.081 662.331 820.349C666.899 818.15 671.317 821.516 673.543 826.138C675.743 830.706 675.606 836.299 671.065 838.486C668.444 839.748 664.784 839.479 662.825 836.794L662.474 836.963L664.577 839.879C666.741 840.569 669.145 840.376 671.443 839.27C676.876 836.653 677.984 830.659 675.381 825.253Z" fill="white" fill-opacity="0.7"/>
<path d="M648.664 825.938L648.813 826.298C649.09 826.184 650.199 825.724 650.899 827.415L653.953 834.788L652.541 838.198L642.922 830.654C641.853 829.798 642.166 828.987 643.104 828.663L642.954 828.303L637.522 830.553L637.671 830.913C637.948 830.799 639.168 830.294 640.85 831.61L651.701 840.169L649.087 846.48C648.118 848.765 646.82 849.237 646.543 849.352L646.692 849.712L651.32 847.795L651.171 847.435C650.517 847.738 649.657 847.542 650.126 846.244L654.424 835.924L657.328 842.936C658.017 844.599 656.936 845.047 656.631 845.173L656.781 845.533L661.437 843.605L661.288 843.244C661.038 843.348 659.93 843.807 659.241 842.144L652.812 826.623C652.111 824.932 653.22 824.473 653.497 824.358L653.348 823.998L648.664 825.938Z" fill="white" fill-opacity="0.7"/>
<path d="M622.368 835.88L624.241 843.139L624.609 843.01C623.966 840.628 623.099 836.514 625.846 835.553L631.962 833.413L636.133 845.334L630.017 847.474C628.176 848.118 628.021 847.219 627.794 846.663L627.426 846.792L628.694 850.416L629.063 850.287C628.883 849.683 628.454 848.911 630.294 848.267L636.411 846.127L638.422 851.875L631.456 854.313C629.672 854.937 628.758 853.413 628.271 852.567L627.903 852.696L629.667 855.829L642.041 851.499L641.912 851.131C641.629 851.23 640.496 851.626 639.892 849.899L634.343 834.042C633.739 832.314 634.871 831.918 635.155 831.819L635.026 831.451L622.368 835.88Z" fill="white" fill-opacity="0.7"/>
<path d="M622.824 854.352C622.859 855.341 623.044 857.067 621.228 857.59L618.345 858.421C617.365 858.703 616.911 858.428 616.562 857.217L611.994 841.362C611.488 839.604 612.641 839.272 612.929 839.189L612.821 838.814L607.978 840.209L608.086 840.584C608.375 840.501 609.528 840.169 610.034 841.927L614.602 857.782C614.951 858.993 614.713 859.467 613.733 859.75L610.85 860.58C609.005 861.112 608.243 859.552 607.747 858.696L607.372 858.804L608.958 862.031L623.573 857.82L623.227 854.236L622.824 854.352Z" fill="white" fill-opacity="0.7"/>
<path d="M589.717 844.774L589.803 845.154C590.096 845.088 591.266 844.821 591.673 846.605L595.411 862.983C595.819 864.768 594.649 865.035 594.356 865.101L594.443 865.482L599.357 864.36L599.27 863.98C598.977 864.047 597.807 864.314 597.4 862.53L593.662 846.151C593.255 844.367 594.425 844.1 594.717 844.033L594.63 843.653L589.717 844.774Z" fill="white" fill-opacity="0.7"/>
<path d="M570.123 869.643C569.827 869.693 568.644 869.894 568.338 868.09L565.91 853.805L579.889 868.379L583.261 867.806L583.196 867.422C582.9 867.472 581.717 867.673 581.415 865.899L578.596 849.306C578.29 847.502 579.473 847.301 579.768 847.251L579.703 846.866L575.799 847.53L575.864 847.914C576.19 847.859 577.343 847.663 577.65 849.467L580.429 865.823L564.56 849.439L564.205 849.5L567.391 868.251C567.698 870.055 566.515 870.256 566.219 870.306L566.284 870.691L570.188 870.028L570.123 869.643Z" fill="white" fill-opacity="0.7"/>
<path d="M562.975 860.309C562.3 854.317 558.086 849.871 552.094 850.546C549.321 850.858 547.024 852.174 545.517 854.336L546.064 859.195C546.269 861.014 545.076 861.148 544.778 861.182L544.822 861.569L554.868 860.438L554.825 860.05L549.511 860.317C548.491 860.371 548.219 860.1 548.091 858.967L547.863 856.94C547.47 853.452 548.789 851.764 552.217 851.377C557.226 850.813 560.254 855.453 560.829 860.551C561.396 865.589 559.483 870.846 554.475 871.411C551.583 871.736 548.211 870.214 547.222 867.065L546.835 867.109L547.887 870.553C549.701 871.918 552.035 872.531 554.569 872.245C560.561 871.57 563.677 866.268 563.005 860.306L562.975 860.309Z" fill="white" fill-opacity="0.7"/>
<path d="M510.359 873.786C510.059 873.786 508.859 873.786 508.859 871.956V857.466L520.199 874.176H523.619V873.786C523.319 873.786 522.119 873.786 522.119 871.986V855.156C522.119 853.326 523.319 853.326 523.619 853.326V852.936H519.659V853.326C519.989 853.326 521.159 853.326 521.159 855.156V871.746L508.259 852.936H507.899V871.956C507.899 873.786 506.699 873.786 506.399 873.786V874.176H510.359V873.786Z" fill="white" fill-opacity="0.7"/>
<path d="M500.623 852.182L500.601 852.572C500.901 852.588 502.099 852.656 501.998 854.453L501.367 865.685L494.898 865.322C492.951 865.212 493.149 864.352 493.153 863.752L492.763 863.73L492.548 867.564L492.938 867.585C493.003 866.958 492.902 866.081 494.849 866.19L501.319 866.554L500.977 872.634L493.609 872.22C491.722 872.114 491.52 870.36 491.334 869.388L490.945 869.367L491.375 872.936L504.464 873.671L504.486 873.282C504.187 873.265 502.989 873.198 503.091 871.371L504.033 854.597C504.136 852.77 505.334 852.837 505.634 852.854L505.655 852.465L500.623 852.182Z" fill="white" fill-opacity="0.7"/>
<path d="M485.964 868.973C485.618 869.9 485.128 871.565 483.25 871.354L480.269 871.018C479.255 870.904 478.941 870.476 479.082 869.224L480.93 852.827C481.135 851.009 482.327 851.143 482.625 851.177L482.669 850.789L477.661 850.225L477.617 850.613C477.915 850.646 479.108 850.781 478.903 852.599L477.055 868.995C476.914 870.247 476.513 870.595 475.499 870.48L472.518 870.145C470.61 869.93 470.503 868.197 470.372 867.216L469.985 867.172L470.215 870.76L485.329 872.463L486.381 869.02L485.964 868.973Z" fill="white" fill-opacity="0.7"/>
<path d="M446.826 863.216C446.379 864.099 445.706 865.699 443.863 865.279L440.938 864.611C439.944 864.384 439.68 863.924 439.96 862.695L443.632 846.609C444.039 844.825 445.209 845.092 445.501 845.159L445.588 844.778L440.674 843.657L440.588 844.037C440.88 844.104 442.05 844.371 441.643 846.155L437.971 862.241C437.691 863.47 437.253 863.77 436.259 863.543L433.334 862.875C431.462 862.448 431.55 860.714 431.53 859.725L431.15 859.638L430.976 863.23L445.805 866.614L447.236 863.31L446.826 863.216Z" fill="white" fill-opacity="0.7"/>
<path d="M422.483 838.819L422.375 839.194C422.664 839.277 423.817 839.609 423.31 841.368L418.659 857.511C418.153 859.27 417 858.937 416.711 858.854L416.603 859.229L421.446 860.624L421.554 860.25C421.266 860.167 420.113 859.834 420.62 858.076L425.271 841.932C425.777 840.174 426.93 840.506 427.219 840.589L427.326 840.214L422.483 838.819Z" fill="white" fill-opacity="0.7"/>
<path d="M411.667 846.694C413.658 841.003 411.875 835.198 406.184 833.206C403.352 832.216 401.009 832.19 398.84 833.211L396.68 838.113L397.048 838.242C398.904 834.028 402.14 832.681 405.906 833.999C410.692 835.674 411.436 841.178 409.741 846.02C408.067 850.806 404.015 854.664 399.258 853C396.511 852.039 394.114 849.261 394.628 845.976L394.26 845.847L393.685 849.397C394.727 851.414 396.564 852.979 398.971 853.821C404.662 855.812 409.685 852.357 411.667 846.694Z" fill="white" fill-opacity="0.7"/>
<path d="M392.291 828.287L392.141 828.647C392.418 828.762 393.527 829.221 392.827 830.912L389.773 838.285L386.363 839.697L384.895 827.562C384.745 826.2 385.54 825.848 386.432 826.282L386.581 825.922L381.149 823.672L380.999 824.032C381.276 824.147 382.496 824.652 382.754 826.772L384.375 840.497L378.065 843.111C375.763 844.042 374.511 843.458 374.234 843.343L374.085 843.704L378.714 845.621L378.863 845.26C378.186 845.013 377.716 844.266 378.966 843.68L389.302 839.421L386.398 846.433C385.709 848.096 384.628 847.648 384.323 847.522L384.174 847.882L388.83 849.811L388.979 849.451C388.73 849.348 387.621 848.888 388.31 847.225L394.739 831.704C395.44 830.013 396.548 830.473 396.825 830.588L396.975 830.227L392.291 828.287Z" fill="white" fill-opacity="0.7"/>
<path d="M366.666 816.723L362.857 823.18L363.209 823.349C364.438 821.211 366.734 817.688 369.356 818.95L375.194 821.762L369.714 833.141L363.876 830.33C362.119 829.484 362.645 828.738 362.878 828.184L362.527 828.015L360.86 831.475L361.212 831.644C361.512 831.089 361.754 830.24 363.511 831.086L369.35 833.898L366.707 839.385L360.058 836.183C358.355 835.363 358.786 833.639 359.04 832.696L358.689 832.527L357.721 835.99L369.532 841.678L369.701 841.326C369.431 841.196 368.35 840.676 369.144 839.027L376.433 823.89C377.227 822.242 378.308 822.762 378.579 822.893L378.748 822.541L366.666 816.723Z" fill="white" fill-opacity="0.7"/>
<path d="M353.927 830.106C353.252 830.83 352.162 832.182 350.508 831.267L347.883 829.816C346.99 829.323 346.863 828.807 347.473 827.705L355.454 813.263C356.34 811.662 357.39 812.242 357.652 812.387L357.841 812.046L353.43 809.608L353.241 809.949C353.504 810.095 354.554 810.675 353.669 812.277L345.687 826.718C345.078 827.821 344.574 827.988 343.682 827.494L341.056 826.043C339.375 825.115 339.94 823.473 340.194 822.516L339.853 822.328L338.692 825.731L352.004 833.088L354.294 830.309L353.927 830.106Z" fill="white" fill-opacity="0.7"/>
<path d="M337.289 799.923L337.082 800.254C337.336 800.413 338.352 801.052 337.378 802.601L328.44 816.826C327.466 818.376 326.45 817.737 326.196 817.578L325.989 817.908L330.256 820.589L330.464 820.259C330.21 820.099 329.194 819.461 330.167 817.911L339.105 803.686C340.079 802.137 341.095 802.775 341.349 802.935L341.557 802.605L337.289 799.923Z" fill="white" fill-opacity="0.7"/>
<path d="M305.849 803.654C305.604 803.48 304.626 802.786 305.685 801.293L314.07 789.476L313.649 809.666L316.438 811.645L316.663 811.327C316.419 811.153 315.44 810.459 316.482 808.991L326.221 795.265C327.28 793.773 328.258 794.467 328.503 794.641L328.729 794.323L325.499 792.031L325.273 792.349C325.543 792.54 326.497 793.217 325.438 794.71L315.838 808.24L316.202 785.434L315.908 785.226L304.902 800.738C303.843 802.23 302.864 801.536 302.62 801.362L302.394 801.68L305.623 803.972L305.849 803.654Z" fill="white" fill-opacity="0.7"/>
<path d="M307.396 792C311.155 787.285 311.319 781.161 306.605 777.402C304.423 775.662 301.869 774.968 299.274 775.431L296.225 779.254C295.084 780.685 294.146 779.937 293.911 779.75L293.668 780.055L301.573 786.358L301.816 786.053L297.87 782.485C297.11 781.802 297.109 781.418 297.82 780.526L299.092 778.931C301.28 776.187 303.407 775.926 306.104 778.077C310.045 781.22 308.905 786.642 305.707 790.653C302.546 794.617 297.475 796.981 293.535 793.839C291.26 792.025 289.952 788.564 291.48 785.638L291.175 785.395L289.483 788.574C289.801 790.823 291.018 792.906 293.011 794.496C297.726 798.255 303.678 796.709 307.419 792.018L307.396 792Z" fill="white" fill-opacity="0.7"/>
<path d="M260.934 764.136C260.721 763.924 259.873 763.075 261.167 761.781L271.413 751.535L267.616 771.37L270.034 773.788L270.31 773.512C270.098 773.3 269.249 772.452 270.522 771.179L282.423 759.278C283.717 757.984 284.565 758.833 284.777 759.045L285.053 758.769L282.253 755.969L281.977 756.245C282.21 756.478 283.038 757.305 281.744 758.599L270.013 770.33L274.192 747.908L273.937 747.653L260.488 761.103C259.194 762.397 258.346 761.548 258.133 761.336L257.858 761.612L260.658 764.412L260.934 764.136Z" fill="white" fill-opacity="0.7"/>
<path d="M269.052 742.163L268.762 742.423C268.961 742.647 269.761 743.541 268.419 744.741L260.03 752.237L255.712 747.405C254.413 745.951 255.162 745.484 255.589 745.061L255.329 744.771L252.466 747.329L252.726 747.62C253.216 747.223 253.764 746.531 255.064 747.985L259.382 752.817L254.841 756.875L249.923 751.372C248.664 749.963 249.761 748.58 250.317 747.761L250.057 747.47L247.837 750.299L256.573 760.074L256.864 759.814C256.664 759.591 255.865 758.696 257.229 757.477L269.756 746.282C271.12 745.063 271.92 745.957 272.12 746.181L272.411 745.921L269.052 742.163Z" fill="white" fill-opacity="0.7"/>
<path d="M246.813 743.67C245.913 744.081 244.389 744.912 243.211 743.435L241.34 741.089C240.704 740.292 240.785 739.767 241.77 738.982L254.67 728.694C256.101 727.553 256.849 728.491 257.036 728.726L257.341 728.483L254.199 724.542L253.894 724.785C254.081 725.02 254.829 725.958 253.398 727.099L240.498 737.387C239.513 738.172 238.984 738.134 238.348 737.336L236.477 734.991C235.28 733.49 236.43 732.189 237.031 731.403L236.788 731.098L234.413 733.798L243.896 745.689L247.075 743.998L246.813 743.67Z" fill="white" fill-opacity="0.7"/>
<path d="M223.21 711.925C222.269 712.233 220.662 712.889 219.656 711.288L218.06 708.748C217.518 707.885 217.656 707.372 218.723 706.702L232.694 697.923C234.244 696.95 234.882 697.966 235.042 698.22L235.372 698.012L232.69 693.745L232.36 693.952C232.52 694.206 233.158 695.222 231.609 696.196L217.638 704.975C216.571 705.645 216.049 705.548 215.506 704.684L213.91 702.144C212.889 700.518 214.177 699.354 214.862 698.64L214.655 698.31L211.993 700.727L220.085 713.606L223.433 712.281L223.21 711.925Z" fill="white" fill-opacity="0.7"/>
<path d="M223.248 677.461L222.907 677.649C223.052 677.912 223.632 678.962 222.031 679.847L207.327 687.974C205.725 688.859 205.145 687.809 205 687.546L204.658 687.735L207.096 692.146L207.438 691.957C207.292 691.695 206.712 690.645 208.314 689.759L223.017 681.633C224.619 680.748 225.2 681.798 225.345 682.06L225.686 681.872L223.248 677.461Z" fill="white" fill-opacity="0.7"/>
<path d="M210.032 675.381C215.465 672.765 218.308 667.4 215.692 661.967C214.39 659.264 212.752 657.589 210.496 656.777L205.503 658.716L205.672 659.067C209.963 657.4 213.204 658.736 214.935 662.331C217.135 666.899 213.769 671.317 209.147 673.543C204.579 675.743 198.986 675.606 196.799 671.065C195.536 668.444 195.805 664.784 198.491 662.825L198.322 662.474L195.406 664.577C194.716 666.741 194.909 669.145 196.015 671.443C198.631 676.876 204.626 677.984 210.032 675.381Z" fill="white" fill-opacity="0.7"/>
<path d="M209.347 648.664L208.987 648.813C209.101 649.091 209.561 650.199 207.87 650.899L200.497 653.953L197.087 652.541L204.63 642.922C205.487 641.853 206.298 642.166 206.622 643.104L206.982 642.955L204.732 637.522L204.371 637.671C204.486 637.949 204.991 639.168 203.675 640.85L195.116 651.701L188.805 649.087C186.52 648.118 186.048 646.82 185.933 646.543L185.573 646.692L187.49 651.321L187.85 651.171C187.547 650.518 187.742 649.657 189.041 650.126L199.361 654.424L192.349 657.329C190.686 658.017 190.238 656.936 190.112 656.632L189.751 656.781L191.68 661.437L192.04 661.288C191.937 661.038 191.478 659.93 193.141 659.241L208.662 652.812C210.353 652.112 210.812 653.22 210.927 653.497L211.287 653.348L209.347 648.664Z" fill="white" fill-opacity="0.7"/>
<path d="M199.404 622.368L192.145 624.241L192.274 624.609C194.656 623.966 198.77 623.099 199.731 625.845L201.871 631.962L189.95 636.133L187.81 630.017C187.166 628.176 188.065 628.021 188.621 627.794L188.493 627.426L184.868 628.694L184.997 629.062C185.601 628.883 186.373 628.454 187.017 630.294L189.157 636.411L183.409 638.422L180.972 631.456C180.347 629.672 181.871 628.758 182.717 628.271L182.589 627.903L179.455 629.666L183.785 642.041L184.153 641.912C184.054 641.629 183.658 640.496 185.385 639.892L201.243 634.343C202.97 633.739 203.366 634.871 203.465 635.154L203.833 635.026L199.404 622.368Z" fill="white" fill-opacity="0.7"/>
<path d="M180.932 622.823C179.943 622.858 178.217 623.044 177.694 621.227L176.863 618.345C176.581 617.365 176.856 616.911 178.066 616.562L193.922 611.994C195.68 611.487 196.012 612.64 196.095 612.929L196.47 612.821L195.075 607.978L194.7 608.086C194.783 608.374 195.115 609.527 193.357 610.034L177.502 614.602C176.291 614.95 175.817 614.712 175.534 613.732L174.704 610.849C174.172 609.005 175.732 608.243 176.588 607.746L176.48 607.372L173.253 608.957L177.464 623.573L181.048 623.227L180.932 622.823Z" fill="white" fill-opacity="0.7"/>
<path d="M190.51 589.716L190.13 589.803C190.196 590.095 190.463 591.265 188.679 591.672L172.3 595.411C170.516 595.818 170.249 594.648 170.183 594.355L169.802 594.442L170.924 599.356L171.304 599.269C171.237 598.977 170.97 597.807 172.754 597.399L189.133 593.661C190.917 593.254 191.184 594.424 191.251 594.716L191.631 594.63L190.51 589.716Z" fill="white" fill-opacity="0.7"/>
<path d="M165.642 570.123C165.591 569.827 165.39 568.644 167.195 568.337L181.48 565.91L166.905 579.889L167.478 583.261L167.863 583.195C167.813 582.9 167.612 581.716 169.386 581.415L185.978 578.596C187.782 578.289 187.983 579.472 188.034 579.768L188.418 579.703L187.755 575.799L187.37 575.864C187.426 576.189 187.622 577.343 185.817 577.649L169.462 580.428L185.845 564.56L185.785 564.205L167.034 567.391C165.23 567.697 165.029 566.514 164.978 566.219L164.594 566.284L165.257 570.188L165.642 570.123Z" fill="white" fill-opacity="0.7"/>
<path d="M174.975 562.975C180.967 562.3 185.413 558.086 184.738 552.094C184.425 549.321 183.11 547.024 180.947 545.517L176.088 546.064C174.27 546.269 174.135 545.076 174.102 544.778L173.714 544.822L174.846 554.868L175.234 554.825L174.967 549.511C174.913 548.491 175.184 548.219 176.317 548.091L178.344 547.863C181.832 547.47 183.52 548.789 183.906 552.217C184.471 557.226 179.831 560.254 174.733 560.829C169.695 561.396 164.437 559.483 163.873 554.475C163.547 551.583 165.069 548.211 168.218 547.222L168.175 546.835L164.731 547.887C163.365 549.701 162.753 552.035 163.038 554.569C163.714 560.561 169.016 563.677 174.978 563.005L174.975 562.975Z" fill="white" fill-opacity="0.7"/>
<path d="M162.097 510.358C162.097 510.058 162.097 508.858 163.927 508.858H178.417L161.707 520.198V523.618H162.097C162.097 523.318 162.097 522.118 163.897 522.118H180.727C182.557 522.118 182.557 523.318 182.557 523.618H182.947V519.658H182.557C182.557 519.988 182.557 521.158 180.727 521.158H164.137L182.947 508.258V507.898H163.927C162.097 507.898 162.097 506.698 162.097 506.398H161.707V510.358H162.097Z" fill="white" fill-opacity="0.7"/>
<path d="M183.102 500.622L182.712 500.6C182.696 500.9 182.628 502.098 180.831 501.997L169.599 501.366L169.962 494.897C170.071 492.95 170.932 493.148 171.532 493.152L171.554 492.763L167.72 492.547L167.698 492.937C168.326 493.002 169.203 492.901 169.094 494.848L168.73 501.318L162.65 500.976L163.064 493.608C163.17 491.721 164.924 491.519 165.896 491.333L165.917 490.944L162.348 491.374L161.613 504.463L162.002 504.485C162.019 504.186 162.086 502.988 163.913 503.09L180.687 504.032C182.514 504.135 182.447 505.333 182.43 505.633L182.819 505.654L183.102 500.622Z" fill="white" fill-opacity="0.7"/>
<path d="M166.312 485.963C165.385 485.617 163.719 485.128 163.931 483.25L164.267 480.269C164.381 479.255 164.809 478.941 166.061 479.082L182.457 480.929C184.276 481.134 184.141 482.327 184.108 482.625L184.495 482.668L185.06 477.66L184.672 477.617C184.638 477.915 184.504 479.107 182.686 478.902L166.289 477.055C165.037 476.914 164.69 476.512 164.804 475.499L165.14 472.518C165.355 470.61 167.088 470.503 168.069 470.372L168.112 469.984L164.524 470.214L162.821 485.328L166.265 486.381L166.312 485.963Z" fill="white" fill-opacity="0.7"/>
<path d="M172.067 446.826C171.185 446.378 169.585 445.706 170.005 443.863L170.673 440.938C170.9 439.944 171.36 439.679 172.588 439.96L188.675 443.631C190.459 444.039 190.192 445.209 190.125 445.501L190.505 445.588L191.627 440.674L191.247 440.587C191.18 440.88 190.913 442.05 189.129 441.643L173.042 437.971C171.814 437.691 171.514 437.253 171.741 436.258L172.408 433.334C172.836 431.462 174.569 431.55 175.559 431.529L175.646 431.149L172.054 430.976L168.67 445.804L171.974 447.236L172.067 446.826Z" fill="white" fill-opacity="0.7"/>
<path d="M196.464 422.483L196.09 422.375C196.007 422.663 195.674 423.816 193.916 423.31L177.773 418.659C176.014 418.152 176.346 416.999 176.429 416.711L176.055 416.603L174.659 421.446L175.034 421.554C175.117 421.266 175.449 420.113 177.208 420.619L193.351 425.27C195.11 425.777 194.778 426.93 194.694 427.218L195.069 427.326L196.464 422.483Z" fill="white" fill-opacity="0.7"/>
<path d="M188.59 411.667C194.281 413.658 200.086 411.875 202.077 406.184C203.068 403.352 203.093 401.009 202.072 398.84L197.171 396.68L197.042 397.048C201.256 398.904 202.602 402.14 201.284 405.906C199.61 410.692 194.105 411.436 189.263 409.741C184.478 408.067 180.619 404.015 182.284 399.258C183.245 396.511 186.023 394.114 189.307 394.628L189.436 394.26L185.887 393.685C183.869 394.727 182.305 396.564 181.463 398.971C179.471 404.662 182.926 409.685 188.59 411.667Z" fill="white" fill-opacity="0.7"/>
<path d="M206.998 392.291L206.637 392.141C206.523 392.418 206.063 393.527 204.373 392.827L197 389.773L195.588 386.363L207.723 384.895C209.084 384.745 209.437 385.54 209.002 386.432L209.363 386.581L211.613 381.149L211.253 380.999C211.138 381.276 210.633 382.496 208.512 382.754L194.787 384.375L192.173 378.065C191.243 375.763 191.827 374.511 191.941 374.234L191.581 374.085L189.664 378.714L190.024 378.863C190.272 378.186 191.019 377.716 191.605 378.966L195.864 389.302L188.851 386.398C187.188 385.709 187.636 384.628 187.763 384.323L187.402 384.174L185.473 388.83L185.834 388.979C185.937 388.73 186.396 387.621 188.059 388.31L203.58 394.739C205.271 395.44 204.812 396.548 204.697 396.825L205.057 396.975L206.998 392.291Z" fill="white" fill-opacity="0.7"/>
<path d="M218.562 366.666L212.105 362.858L211.936 363.209C214.074 364.439 217.597 366.734 216.334 369.356L213.523 375.195L202.143 369.715L204.955 363.876C205.801 362.119 206.547 362.645 207.1 362.878L207.27 362.527L203.81 360.861L203.641 361.212C204.195 361.513 205.044 361.755 204.198 363.512L201.387 369.35L195.9 366.708L199.102 360.059C199.922 358.356 201.646 358.786 202.589 359.041L202.758 358.689L199.295 357.721L193.607 369.533L193.958 369.702C194.088 369.432 194.609 368.351 196.258 369.145L211.394 376.434C213.043 377.228 212.522 378.309 212.392 378.579L212.744 378.748L218.562 366.666Z" fill="white" fill-opacity="0.7"/>
<path d="M205.178 353.926C204.454 353.252 203.102 352.162 204.016 350.508L205.468 347.882C205.961 346.99 206.477 346.863 207.579 347.473L222.02 355.454C223.622 356.339 223.042 357.39 222.897 357.652L223.238 357.841L225.676 353.43L225.335 353.241C225.189 353.504 224.609 354.554 223.007 353.669L208.566 345.687C207.463 345.078 207.296 344.574 207.789 343.681L209.241 341.056C210.169 339.375 211.811 339.94 212.767 340.194L212.956 339.853L209.553 338.692L202.196 352.004L204.975 354.294L205.178 353.926Z" fill="white" fill-opacity="0.7"/>
<path d="M235.361 337.289L235.03 337.081C234.871 337.335 234.232 338.351 232.683 337.378L218.458 328.439C216.908 327.466 217.547 326.45 217.706 326.196L217.376 325.988L214.695 330.256L215.025 330.463C215.185 330.209 215.823 329.193 217.372 330.167L231.597 339.105C233.147 340.079 232.509 341.095 232.349 341.349L232.679 341.556L235.361 337.289Z" fill="white" fill-opacity="0.7"/>
<path d="M231.631 305.849C231.804 305.605 232.499 304.626 233.991 305.685L245.809 314.07L225.618 313.649L223.639 316.438L223.957 316.664C224.131 316.419 224.825 315.44 226.293 316.482L240.019 326.221C241.512 327.28 240.817 328.259 240.644 328.503L240.962 328.729L243.253 325.499L242.935 325.274C242.744 325.543 242.067 326.497 240.575 325.438L227.045 315.838L249.85 316.202L250.059 315.908L234.547 304.902C233.054 303.843 233.749 302.864 233.922 302.62L233.604 302.394L231.313 305.624L231.631 305.849Z" fill="white" fill-opacity="0.7"/>
<path d="M243.285 307.395C247.999 311.155 254.123 311.319 257.882 306.604C259.622 304.423 260.316 301.868 259.853 299.274L256.03 296.225C254.599 295.084 255.347 294.145 255.534 293.911L255.229 293.668L248.926 301.572L249.231 301.815L252.8 297.869C253.482 297.109 253.867 297.109 254.758 297.82L256.353 299.092C259.097 301.28 259.358 303.407 257.207 306.104C254.065 310.044 248.642 308.905 244.631 305.706C240.667 302.545 238.303 297.475 241.445 293.534C243.26 291.259 246.72 289.951 249.646 291.479L249.889 291.174L246.71 289.483C244.461 289.8 242.378 291.017 240.789 293.011C237.029 297.725 238.575 303.678 243.266 307.419L243.285 307.395Z" fill="white" fill-opacity="0.7"/>
<path d="M271.148 260.933C271.36 260.721 272.209 259.872 273.503 261.166L283.749 271.412L263.914 267.615L261.496 270.034L261.772 270.309C261.984 270.097 262.833 269.249 264.105 270.521L276.006 282.422C277.3 283.716 276.451 284.565 276.239 284.777L276.515 285.053L279.315 282.252L279.039 281.977C278.806 282.21 277.979 283.037 276.685 281.743L264.954 270.012L287.376 274.191L287.631 273.937L274.182 260.488C272.888 259.194 273.736 258.345 273.948 258.133L273.672 257.857L270.872 260.657L271.148 260.933Z" fill="white" fill-opacity="0.7"/>
<path d="M293.121 269.052L292.861 268.761C292.638 268.961 291.743 269.76 290.543 268.418L283.047 260.03L287.879 255.712C289.333 254.412 289.801 255.161 290.223 255.588L290.514 255.329L287.955 252.465L287.664 252.725C288.061 253.215 288.753 253.764 287.299 255.063L282.467 259.381L278.409 254.84L283.912 249.922C285.321 248.663 286.704 249.76 287.523 250.316L287.814 250.056L284.985 247.837L275.21 256.573L275.47 256.863C275.693 256.663 276.588 255.864 277.808 257.228L289.002 269.755C290.222 271.12 289.327 271.919 289.103 272.119L289.363 272.41L293.121 269.052Z" fill="white" fill-opacity="0.7"/>
<path d="M291.614 246.814C291.203 245.914 290.371 244.39 291.849 243.211L294.194 241.341C294.992 240.705 295.516 240.785 296.302 241.77L306.589 254.671C307.73 256.101 306.792 256.85 306.558 257.037L306.801 257.342L310.741 254.199L310.498 253.894C310.264 254.081 309.325 254.83 308.184 253.399L297.897 240.499C297.111 239.513 297.15 238.984 297.947 238.348L300.292 236.478C301.794 235.281 303.094 236.43 303.88 237.031L304.185 236.788L301.486 234.413L289.594 243.897L291.285 247.076L291.614 246.814Z" fill="white" fill-opacity="0.7"/>
<path d="M323.359 223.21C323.051 222.269 322.395 220.662 323.996 219.656L326.536 218.06C327.4 217.517 327.912 217.656 328.582 218.723L337.361 232.694C338.334 234.243 337.318 234.882 337.064 235.041L337.272 235.372L341.539 232.69L341.332 232.36C341.078 232.52 340.062 233.158 339.088 231.608L330.31 217.638C329.639 216.571 329.737 216.049 330.6 215.506L333.14 213.91C334.766 212.889 335.93 214.177 336.644 214.862L336.974 214.655L334.557 211.992L321.679 220.085L323.003 223.433L323.359 223.21Z" fill="white" fill-opacity="0.7"/>
<path d="M357.824 223.248L357.635 222.906C357.373 223.052 356.322 223.632 355.437 222.03L347.311 207.327C346.426 205.725 347.476 205.144 347.738 204.999L347.55 204.658L343.139 207.096L343.327 207.437C343.59 207.292 344.64 206.712 345.525 208.313L353.652 223.017C354.537 224.619 353.487 225.199 353.224 225.344L353.413 225.686L357.824 223.248Z" fill="white" fill-opacity="0.7"/>
<path d="M359.903 210.031C362.519 215.464 367.885 218.308 373.317 215.692C376.02 214.39 377.695 212.751 378.507 210.495L376.568 205.502L376.217 205.671C377.884 209.963 376.548 213.204 372.953 214.935C368.385 217.135 363.967 213.768 361.741 209.146C359.541 204.578 359.678 198.985 364.219 196.798C366.841 195.536 370.5 195.805 372.459 198.491L372.811 198.321L370.707 195.405C368.543 194.716 366.139 194.908 363.841 196.014C358.409 198.631 357.3 204.626 359.903 210.031Z" fill="white" fill-opacity="0.7"/>
<path d="M386.62 209.346L386.471 208.986C386.194 209.101 385.085 209.56 384.385 207.869L381.331 200.497L382.744 197.086L392.363 204.63C393.431 205.486 393.118 206.297 392.181 206.621L392.33 206.981L397.762 204.731L397.613 204.371C397.336 204.485 396.116 204.991 394.435 203.674L383.583 195.115L386.197 188.804C387.167 186.52 388.464 186.047 388.742 185.932L388.592 185.572L383.964 187.489L384.113 187.849C384.767 187.546 385.627 187.742 385.158 189.04L380.86 199.36L377.956 192.348C377.267 190.685 378.348 190.237 378.653 190.111L378.504 189.751L373.847 191.679L373.996 192.04C374.246 191.936 375.355 191.477 376.043 193.14L382.473 208.661C383.173 210.352 382.064 210.811 381.787 210.926L381.936 211.286L386.62 209.346Z" fill="white" fill-opacity="0.7"/>
<path d="M412.916 199.404L411.043 192.145L410.675 192.274C411.318 194.655 412.185 198.77 409.439 199.731L403.322 201.871L399.151 189.95L405.267 187.81C407.108 187.166 407.263 188.065 407.49 188.621L407.858 188.492L406.59 184.868L406.222 184.997C406.401 185.601 406.83 186.373 404.99 187.017L398.873 189.157L396.862 183.409L403.828 180.971C405.612 180.347 406.526 181.871 407.013 182.717L407.381 182.588L405.618 179.455L393.243 183.785L393.372 184.153C393.655 184.054 394.788 183.658 395.392 185.385L400.941 201.242C401.545 202.97 400.413 203.366 400.13 203.465L400.258 203.833L412.916 199.404Z" fill="white" fill-opacity="0.7"/>
<path d="M412.461 180.932C412.426 179.943 412.241 178.217 414.057 177.694L416.94 176.863C417.92 176.581 418.374 176.856 418.723 178.067L423.291 193.922C423.797 195.68 422.644 196.013 422.356 196.096L422.464 196.47L427.307 195.075L427.199 194.7C426.911 194.783 425.758 195.116 425.251 193.357L420.683 177.502C420.334 176.291 420.572 175.817 421.552 175.534L424.435 174.704C426.28 174.172 427.042 175.733 427.538 176.589L427.913 176.481L426.328 173.253L411.712 177.464L412.058 181.048L412.461 180.932Z" fill="white" fill-opacity="0.7"/>
<path d="M445.569 190.51L445.482 190.13C445.189 190.196 444.019 190.463 443.612 188.679L439.874 172.3C439.467 170.516 440.637 170.249 440.929 170.183L440.842 169.802L435.929 170.924L436.015 171.304C436.308 171.237 437.478 170.97 437.885 172.754L441.623 189.133C442.031 190.917 440.861 191.184 440.568 191.251L440.655 191.631L445.569 190.51Z" fill="white" fill-opacity="0.7"/>
<path d="M465.161 165.641C465.457 165.591 466.64 165.39 466.947 167.194L469.374 181.48L455.395 166.905L452.023 167.478L452.089 167.863C452.384 167.812 453.567 167.611 453.869 169.386L456.688 185.978C456.995 187.782 455.812 187.983 455.516 188.033L455.581 188.418L459.485 187.755L459.42 187.37C459.095 187.425 457.941 187.621 457.635 185.817L454.856 169.462L470.724 185.845L471.079 185.785L467.893 167.033C467.587 165.229 468.77 165.028 469.065 164.978L469 164.594L465.096 165.257L465.161 165.641Z" fill="white" fill-opacity="0.7"/>
<path d="M472.309 174.975C472.984 180.967 477.199 185.413 483.191 184.738C485.963 184.426 488.26 183.11 489.768 180.948L489.22 176.088C489.015 174.27 490.208 174.136 490.506 174.102L490.462 173.714L480.416 174.846L480.459 175.234L485.773 174.967C486.793 174.913 487.065 175.184 487.193 176.317L487.421 178.344C487.814 181.832 486.495 183.52 483.067 183.907C478.058 184.471 475.03 179.831 474.456 174.733C473.888 169.695 475.801 164.438 480.81 163.873C483.701 163.548 487.073 165.07 488.062 168.219L488.449 168.175L487.397 164.731C485.583 163.366 483.25 162.753 480.716 163.039C474.723 163.714 471.608 169.016 472.279 174.978L472.309 174.975Z" fill="white" fill-opacity="0.7"/>
</svg>
